<svg width="64.73mm" height="64.73mm" version="1.1" viewBox="0 0 64.73 64.73" xmlns="http://www.w3.org/2000/svg">
 <g transform="translate(1267.6 529.11)">
  <g transform="translate(-1524.9 -768.17)">
   <rect x="257.3" y="239.05" width="64.73" height="64.73" style="fill:none;paint-order:stroke fill markers"/>
   <path transform="matrix(.26458 0 0 .26458 257.3 239.06)" d="m48.906 46.262v129.21l47.607 22.898h4.6426l46.059-24.855-0.45117-0.82617h0.75391v-110.87l38.223 16.912v46.711h10.002v-53.223l-53.318-23.594-43.68 21.018-49.838-23.379zm10.004 15.738 34.863 16.357v107.6l-34.863-16.779v-107.18zm78.602 0.087891v105.29l-33.742 18.211v-107.28l33.742-16.23zm33.744 65.986c-0.95467 0.02462-1.8836 0.15715-2.748 0.38281-3.4579 0.90264-6.376 2.8918-8.7949 5.3535-2.4189 2.4617-4.3677 5.4247-5.2188 8.9199-0.85109 3.4952-0.18996 8.0048 2.8555 11.023l19.301 19.131 6.9941-7.1406-19.297-19.127c-0.40703-0.40344-0.43585-0.38603-0.16602-1.4941s1.2513-2.8597 2.625-4.2578c1.3739-1.3981 3.1094-2.4146 4.2148-2.7031 1.1054-0.28834 1.0913-0.2529 1.4805 0.13281l19.299 19.131 6.998-7.1406-19.301-19.127c-2.2823-2.2623-5.3782-3.1578-8.2422-3.084zm29.301 24.158-7.2852 7.4336 7.1074 7.043 0.28515-0.29492 15.746 15.607c0.38918 0.38577 0.42716 0.36871 0.15625 1.4844-0.27091 1.1157-1.2529 2.8755-2.623 4.2773s-3.0976 2.4178-4.1953 2.7051c-1.0976 0.28816-1.0813 0.25698-1.4883-0.14648l-15.75-15.607 0.28906-0.29688-7.1016-7.043-7.2891 7.4356 22.854 22.652c3.0454 3.0187 7.541 3.6154 11.004 2.709 3.4629-0.90641 6.3784-2.9069 8.791-5.375 2.4126-2.4681 4.3497-5.4317 5.1973-8.9219 0.8475-3.4901 0.19926-7.9954-2.8438-11.012l-22.854-22.65zm-14.49 3.9004-3.7891 3.8652 7.1055 7.043 3.7852-3.8672-7.1016-7.041z" style="color-rendering:auto;color:#000000;dominant-baseline:auto;fill-rule:evenodd;fill:#f5f5f5;font-feature-settings:normal;font-variant-alternates:normal;font-variant-caps:normal;font-variant-ligatures:normal;font-variant-numeric:normal;font-variant-position:normal;image-rendering:auto;isolation:auto;mix-blend-mode:normal;shape-padding:0;shape-rendering:auto;solid-color:#000000;text-decoration-color:#000000;text-decoration-line:none;text-decoration-style:solid;text-indent:0;text-orientation:mixed;text-transform:none;white-space:normal"/>
   <g transform="matrix(.48196 -.13345 .1331 .48479 289.64 125.65)" style="stroke-width:1.9944"></g>
  </g>
 </g>
</svg>
