<svg width="64.73mm" height="64.73mm" version="1.1" viewBox="0 0 64.73 64.73" xmlns="http://www.w3.org/2000/svg">
 <g transform="translate(-20.552 -85.474)">
  <g transform="translate(-762.73 157.6)">
   <g transform="translate(522.47 -516.45)">
    <g transform="translate(4.2763 134.97)">
     <rect x="256.54" y="309.36" width="64.73" height="64.73" style="fill:none;paint-order:stroke fill markers"/>
     <g transform="translate(-.75595 70.304)">
      <path transform="matrix(.26458 0 0 .26458 257.29 239.05)" d="m48.924 46.295v129.2l47.607 22.906h4.6426l46.049-24.861-0.44336-0.82813h0.75195v-110.86l38.225 16.912v46.705h10.002v-53.215l-53.312-23.594-43.686 21.018-49.836-23.379zm10.004 15.738 34.863 16.357v107.59l-34.863-16.771v-107.18zm78.602 0.087891v105.29l-33.742 18.211v-107.27l33.742-16.232zm32.783 60.037c-0.95834 0.00226-1.8938 0.11231-2.7656 0.31836-3.4873 0.82459-6.4518 2.7488-8.9277 5.1543-2.476 2.4055-4.4863 5.3208-5.416 8.7871-0.92966 3.4663-0.37956 7.9737 2.5938 11.061l18.848 19.568 7.2051-6.9356-18.855-19.576c-0.399-0.41423-0.43251-0.41369-0.13476-1.5234 0.29755-1.1097 1.3212-2.8398 2.7266-4.2051 1.4053-1.3653 3.1653-2.335 4.2676-2.5957 1.1023-0.26063 1.0638-0.23777 1.4453 0.1582l18.854 19.576 7.1992-6.9355-18.848-19.576c-1.4854-1.5422-3.3546-2.4862-5.2852-2.9434-0.9653-0.22859-1.9479-0.33428-2.9062-0.33203zm41.014 36.953-7.4785 7.2852 6.9805 7.168 0.27149-0.26562 15.365 15.951c0.37652 0.39064 0.41862 0.40375 0.1211 1.5156-0.29886 1.1173-1.3248 2.8497-2.7266 4.2188-1.4018 1.369-3.1455 2.3459-4.2402 2.6055-1.0947 0.25967-1.058 0.24032-1.457-0.17382l-15.402-15.996 0.31054-0.30273-6.9746-7.1621-7.4414 7.2402 22.303 23.156c2.9732 3.0869 7.4763 3.793 10.969 2.9648 3.4925-0.82814 6.4522-2.7638 8.9219-5.1758 2.4697-2.412 4.4763-5.3257 5.4023-8.7871s0.38494-7.9643-2.5859-11.049l-22.338-23.193zm-53.65 3.623-2.2754 4.8184 18.342 8.6602-19.119 6.7949 1.7832 5.0254 19.129-6.7988-8.6856 18.256 4.8106 2.291 8.6992-18.271 6.8301 19.072 5.0254-1.8008-7.9121-22.086-3.7207 1.332-2.457-1.168-0.87695-2.4648 1.707-3.6133-21.279-10.047z" style="color-rendering:auto;color:#000000;dominant-baseline:auto;fill:#f5f5f5;font-feature-settings:normal;font-variant-alternates:normal;font-variant-caps:normal;font-variant-ligatures:normal;font-variant-numeric:normal;font-variant-position:normal;image-rendering:auto;isolation:auto;mix-blend-mode:normal;shape-padding:0;shape-rendering:auto;solid-color:#000000;text-decoration-color:#000000;text-decoration-line:none;text-decoration-style:solid;text-indent:0;text-orientation:mixed;text-transform:none;white-space:normal"/>
     </g>
    </g>
   </g>
   <g transform="rotate(1.3282 -12732 -1723.5)"></g>
  </g>
 </g>
</svg>
