<svg width="64.73mm" height="64.73mm" version="1.1" viewBox="0 0 64.73 64.73" xmlns="http://www.w3.org/2000/svg">
 <g transform="translate(-62.885 -65.82)">
  <g transform="translate(-193.12 -310.36)">
   <g transform="translate(-.53454 66.817)">
    <rect x="256.54" y="309.36" width="64.73" height="64.73" style="fill:none;paint-order:stroke fill markers"/>
    <g transform="translate(-.75595 70.304)">
     <path transform="matrix(.26458 0 0 .26458 257.3 239.05)" d="m48.908 46.27v129.21l47.605 22.9h2.2578 2.3848l46.057-24.855-0.45117-0.82617h0.7539v-110.87l38.223 16.912v46.713h10.002v-53.225l-53.318-23.592-43.68 21.016-49.834-23.379zm10.002 15.738 34.865 16.359v107.6l-34.865-16.779v-107.18zm78.602 0.089844v105.29l-33.742 18.211v-107.27l33.742-16.232zm48.48 69.162v32.289h-32.289v9.998h32.289v32.287h9.998v-32.287h32.289v-9.998h-32.289v-32.289h-9.998z" style="color-rendering:auto;color:#000000;dominant-baseline:auto;fill-rule:evenodd;fill:#f5f5f5;font-feature-settings:normal;font-variant-alternates:normal;font-variant-caps:normal;font-variant-ligatures:normal;font-variant-numeric:normal;font-variant-position:normal;image-rendering:auto;isolation:auto;mix-blend-mode:normal;shape-padding:0;shape-rendering:auto;solid-color:#000000;text-decoration-color:#000000;text-decoration-line:none;text-decoration-style:solid;text-indent:0;text-orientation:mixed;text-transform:none;white-space:normal"/>
     <g transform="matrix(.48196 -.13345 .1331 .48479 289.64 125.65)" style="stroke-width:1.9944"></g>
    </g>
   </g>
  </g>
 </g>
</svg>
