<svg width="64.73mm" height="64.73mm" version="1.1" viewBox="0 0 64.73 64.73" xmlns="http://www.w3.org/2000/svg">
 <g transform="translate(1009.1 423.28)">
  <g transform="translate(-1265.6 -732.64)">
   <rect x="256.54" y="309.36" width="64.73" height="64.73" fill="none" style="paint-order:stroke fill markers"/>
   <g transform="translate(-.75595 70.304)">
    <path transform="matrix(.26458 0 0 .26458 257.26 239.06)" d="m49.061 46.271v129.24l49.938 23.422 49.857-24.951-1.1152-112.12 38.15 16.883v46.713h10.002v-53.225l-53.312-23.592-43.678 21.016-49.842-23.379zm10.002 15.738 34.865 16.359v107.14l-34.865-16.359v-107.14zm78.684 0.044922 1.0488 105.78-34.873 17.457v-106.96l33.824-16.277zm25.623 64.58-7.0644 7.0703 24.543 24.543-24.543 24.547 7.0644 7.0723 24.549-24.549 24.547 24.549 7.0723-7.0723-24.547-24.547 24.547-24.543-7.0723-7.0703-24.547 24.541-24.549-24.541zm24.549 24.887 6.7246 6.7246-6.7246 6.7266-6.7266-6.7266 6.7266-6.7246z" style="color-rendering:auto;color:#000000;dominant-baseline:auto;fill:#fff;font-feature-settings:normal;font-variant-alternates:normal;font-variant-caps:normal;font-variant-ligatures:normal;font-variant-numeric:normal;font-variant-position:normal;image-rendering:auto;isolation:auto;mix-blend-mode:normal;shape-padding:0;shape-rendering:auto;solid-color:#000000;text-decoration-color:#000000;text-decoration-line:none;text-decoration-style:solid;text-indent:0;text-orientation:mixed;text-transform:none;white-space:normal"/>
   </g>
  </g>
 </g>
</svg>
