<svg width="64.73mm" height="64.73mm" version="1.1" viewBox="0 0 64.73 64.73" xmlns="http://www.w3.org/2000/svg">
 <g transform="translate(728.6 248.66)">
  <g transform="translate(-979.73 -348.99)">
   <g transform="translate(.26458 -2.9067e-6)">
    <path transform="matrix(.26458 0 0 .26458 250.87 100.34)" d="m48.906 44.811v129.21l47.605 22.898h2.2598 2.3848l46.055-24.861-0.44922-0.82812h0.75195v-110.86l38.225 16.912v46.705h10.002v-53.215l-53.312-23.594-43.686 21.018-49.836-23.379zm10.004 15.738 34.863 16.352v107.6l-34.863-16.771v-107.18zm78.602 0.080078v105.3l-33.742 18.211v-107.27l33.742-16.234zm46.969 68.551v6.5938a32.182 32.182 0 0 0-14.23 5.9062l-4.6699-4.6699-6.8262 6.8262 4.668 4.6699a32.182 32.182 0 0 0-5.8906 14.23h-6.6055v9.6562h6.5898a32.182 32.182 0 0 0 5.9063 14.23l-4.668 4.6699 6.8262 6.8262 4.6699-4.6699a32.182 32.182 0 0 0 14.23 5.8906v6.6074h9.6543v-6.5918a32.182 32.182 0 0 0 14.232-5.9062l4.6699 4.6699 6.8242-6.8262-4.668-4.6699a32.182 32.182 0 0 0 5.8926-14.23h6.6055v-9.6562h-6.5918a32.182 32.182 0 0 0-5.9062-14.23l4.668-4.6699-6.8242-6.8262-4.6699 4.668a32.182 32.182 0 0 0-14.232-5.8906v-6.6074h-9.6543zm4.8281 15.857a22.527 22.527 0 0 1 22.527 22.527 22.527 22.527 0 0 1-22.527 22.527 22.527 22.527 0 0 1-22.527-22.527 22.527 22.527 0 0 1 22.527-22.527z" style="fill:#f5f5f5;paint-order:stroke fill markers"/>
    <g transform="translate(131.74 67.919)"></g>
    <rect x="250.87" y="100.34" width="64.73" height="64.73" style="fill:none;paint-order:stroke fill markers"/>
   </g>
  </g>
 </g>
</svg>
