<svg width="64.73mm" height="64.73mm" version="1.1" viewBox="0 0 64.73 64.73" xmlns="http://www.w3.org/2000/svg">
 <g transform="translate(-53.814 -98.325)">
  <g transform="translate(109.07 538.38)">
   <rect x="-55.258" y="-440.06" width="64.73" height="64.73" style="fill:none;paint-order:stroke fill markers"/>
   <g transform="matrix(1.1506 0 0 1.1544 -1031.2 -542.76)" style="stroke-width:.86767">
    <path transform="matrix(.22995 0 0 .22919 848.22 88.966)" d="m210.19 49.49a4.9922 5.0088 0 0 0-1.0606 0.083985l-19.824 3.75a4.9922 5.0088 0 0 0-4.0176 5.6328l1.0957 7.6602c-1.3681-0.16848-2.8295-0.28654-4.418-0.36524-4.9939-0.24739-11.111-0.12355-17.818 0.2207-13.414 0.68829-29.129 2.2767-41.748 3.7676-3.1317 0.37016-5.6306 1.791-8.0527 3.5078l-18.727-7.8379a4.9926 5.0091 0 0 0-1.3672-0.35742c-8.2629-0.92822-16.563-1.4498-24.062-0.94531-4.0325 0.27126-7.8568 0.81633-11.357 1.8535l1.1562-8.084a4.9922 5.0088 0 0 0-4.1875-5.666l-20.445-3.127a4.9922 5.0088 0 0 0-0.99219-0.050781v-0.001953a4.9922 5.0088 0 0 0-4.6973 4.2871l-15.73 110.06a4.9922 5.0088 0 0 0 4.1875 5.6582l20.436 3.1289a4.9922 5.0088 0 0 0 5.6895-4.2363l2.0215-14.137c0.12164 0.14176 0.15379 0.17471 0.27344 0.31445 1.5295 1.7864 2.2117 2.5959 2.9551 3.4688-0.70176 2.9774-1.4988 5.9757-1.2656 9.0156 0.33138 4.3214 0.6878 8.5416 4.8066 11.777 7.0439 5.5336 11.837 7.0719 15.986 8.9648 3.737 1.7048 7.0565 0.11645 9.4199-1.4219 1.7301-1.1261 3.2852-2.5078 4.7363-4.0039 0.37486 0.36633 0.74313 0.7222 1.1484 1.1484 2.5501 2.6817 5.5266 6.1997 10.422 7.873 4.623 1.5802 8.7243 1.2303 11.9 0.9043 3.1761-0.32593 5.4904-0.59764 8.3906 0.14453 2.9414 0.75273 5.1264 1.4475 7.0938 1.9609s3.8497 1.0476 6.3535 0.49414c2.5038-0.55351 4.5955-2.5886 5.7148-4.4414 0.12005-0.19871 0.22303-0.40872 0.33594-0.61132 1.4333 0.4758 2.4257 0.8027 4.2246 1.3965 3.1967 1.0552 6.1813 2.046 8.1035 2.5137a4.9926 5.0091 0 0 0 2.0137 0.06836c5.915-1.013 9.7064-5.6455 11.416-10.004 0.9446-2.4082 0.74712-4.4648 0.97656-6.7246l9.9531 3.3574a4.9926 5.0091 0 0 0 0.74023 0.1875c3.728 0.64121 7.2041-0.9671 9.5469-3.0938 2.3428-2.1267 3.9537-4.8169 5.0527-7.7109 0.65285-1.7192 1.1183-3.5174 1.3359-5.3555l5.4004-3.3379a4.9922 5.0088 0 0 0 1.1797-1.0137s2.0423-2.404 4.2383-4.9688c0.12264-0.14355 0.15644-0.17893 0.28125-0.32422l2.0215 14.139a4.9922 5.0088 0 0 0 5.8594 4.209l19.824-3.748a4.9922 5.0088 0 0 0 4.0176-5.6348l-15.738-110.05a4.9922 5.0088 0 0 0-4.7988-4.2949zm-171.36 10.754 10.566 1.6191-14.312 100.14-10.566-1.6191 14.312-100.14zm167.02 0.14453 14.312 100.12-9.998 1.8906-14.311-100.12 9.9961-1.8926zm-130 14.053c5.1922-0.011889 10.93 0.40367 16.719 1.0391l13.383 5.6094c-0.0691 0.071132-0.14214 0.13969-0.21094 0.21094-4.834 5.006-8.7963 10.126-10.42 12.451-2.4894 3.5656-2.644 7.6982-1.9199 11.428 0.72411 3.7295 2.3873 7.3086 5.3164 10.014 4.1693 3.8504 9.2547 2.871 13.029 1.7715 1.8873-0.54975 3.6128-1.2741 5.0957-2.0449 1.4829-0.77084 2.6027-1.3622 3.8906-2.7188 0.8504-0.89575 1.2988-1.5275 2.3789-2.8379 1.0801-1.3104 2.4452-2.952 3.8555-4.5664 1.4103-1.6145 2.8728-3.2026 4.0684-4.3555 1.0612-1.0233 1.8794-1.4067 1.3516-1.2695 0.29789-0.013089 0.59884-0.02643 1.0352-0.035156 1.1873-0.021816 2.7557-0.030793 4.3066-0.035157 3.1019-0.003621 6.123 0.027344 6.123 0.027344a4.9945 5.011 0 0 0 0.19336-0.007812l33.756 11.342c1.321 3.0979 1.7669 6.5202 0.91015 9.3398-0.88249 2.9044-2.8315 4.9742-6.0996 6.1953l-36.387-13.695a4.9926 5.0091 0 0 0-6.5898 3.4688l-0.20508 0.82813a4.9926 5.0091 0 0 0 3.1426 5.9297l46.027 16.652c1.0291 2.2908 1.4654 4.2709 0.83203 5.8457-0.58 1.4422-2.0341 2.4547-3.4062 3.3828l-29.242-10.959a4.9926 5.0091 0 0 0-6.7363 4.6875v1.0312a4.9926 5.0091 0 0 0 3.3203 4.7207l34.104 12.117c0.11031 0.1193 0.23407 0.26431 0.3418 0.52344a4.9922 5.0088 0 0 0 0.11523 3.1133c-0.12871 0.86429-0.3546 1.7855-0.6875 2.6621-0.629 1.6563-1.6248 3.1227-2.4277 3.8516-0.75438 0.6848-0.94325 0.62947-1.0879 0.60547l-31.066-10.469c-0.42754-1.7413-1.1706-3.3322-2.1777-4.6328-1.8517-2.3913-4.3405-3.8176-6.7871-4.5508-1.6349-0.48998-3.2547-0.27254-4.875-0.19531-0.55508-1.4753-1.3547-2.8282-2.3262-3.8613-2.0713-2.2029-4.6472-3.5498-7.3476-4.3613-2.7005-0.81155-5.5652-1.0981-8.4512-0.46875-1.178 0.25699-2.3682 0.87078-3.5078 1.5586-0.01304-0.00872-0.02211-0.02643-0.03515-0.03515-1.839-1.2963-4.0032-2.3419-6.4375-3.0254-2.4344-0.68349-5.1587-1.0196-8.0195-0.40039l0.001953 0.00195c-2.4674 0.53409-4.8018 2.3946-6.6172 4.6856-0.99908-0.50596-1.852-1.2086-2.9727-1.5508-2.3404-0.71459-4.9424-1.111-7.7461-0.50195-2.8037 0.60901-5.8982 2.7442-7.2363 5.957a4.9922 5.0088 0 0 0-0.10156 0.27149c-0.81217 2.3246-1.2984 3.4551-1.4199 3.707-0.11307 0.11257-0.27721 0.15114-0.34766 0.25586-0.5886 0.8732-0.65738 1.2502-0.81445 1.7051-0.31398 0.90976-0.64279 2.0864-1.291 4.4726a4.9922 5.0088 0 0 0-0.1543 0.88672c-0.55929 6.5088 3.1874 13.289 10.307 16.795-0.47028 0.39812-0.91942 0.75365-1.2949 0.99805-0.34477 0.22441-0.53687 0.31122-0.6582 0.35937 0.27692 0.12252 0.51367 0.21775 0.80274 0.34961-0.83087-0.37907-1.0728-0.24241-0.80274-0.34961-4.3816-1.9386-7.4195-2.885-13.152-7.3887 0.8517 0.66909-0.78172-1.6895-1.0098-4.6621-0.22788-2.9726 0.30168-6.484 0.95117-7.9336a4.9926 5.0091 0 0 0-0.75586-5.3008s-2.0545-2.4218-4.2637-5.002c-2.2092-2.5802-4.3068-5.0506-5.3184-6.127a4.9926 5.0091 0 0 0-0.67773-0.61328l9.0488-63.275c2.7571-1.7482 7.6065-3.0499 13.688-3.459 1.5916-0.10701 3.2615-0.15815 4.9922-0.16211zm102.05 1.709c1.2747 0.015575 2.4706 0.050831 3.5742 0.10547 2.2073 0.10952 4.0532 0.30538 5.3184 0.54492 0.46242 0.087552 0.80983 0.19755 1.0898 0.29297l9.2715 64.832a4.9922 5.0088 0 0 0-0.67969 0.61328c-1.0115 1.0763-3.1073 3.5468-5.3164 6.127-1.9412 2.2672-3.3327 3.9029-3.7461 4.3887l-1.9863 1.2285c-0.06921-0.09665-0.13358-0.19549-0.20508-0.29101 1.3854-1.5214 2.6582-3.1899 3.4727-5.2148 1.8841-4.6847 1.5594-10.664-1.7656-16.072a4.9926 5.0091 0 0 0-2.5566-2.0801l-0.73046-0.26367c2.0832-2.2511 3.7668-4.8232 4.6211-7.6348 1.8701-6.1548 1.0057-12.958-2.2773-18.732a4.9926 5.0091 0 0 0-2.7422-2.2656l-37.17-12.484a4.9926 5.0091 0 0 0-1.4688-0.28125 4.9926 5.0091 0 0 0-1.3281 0.14062c-0.55967-0.005213-2.7263-0.027329-5.5508-0.023438-1.5837 0.001876-3.1982 0.01679-4.502 0.042969-0.65193 0.013089-1.2188 0.027864-1.7168 0.052734-0.24918 0.01309-0.4797 0.025911-0.73828 0.050781-0.25875 0.026179-0.31027-0.071459-1.3418 0.27148-2.7917 0.92695-3.7501 2.2216-5.3008 3.7168-1.5506 1.4952-3.1471 3.2501-4.6621 4.9844-1.515 1.7343-2.9398 3.4429-4.043 4.7813s-2.2424 2.6564-1.9121 2.3086c0.38269-0.40315-0.34579 0.25963-1.2559 0.73242-0.91002 0.47306-2.12 0.98234-3.2871 1.3223-2.3341 0.67991-3.8559 0.13157-3.4824 0.47656-0.86671-0.80038-1.9183-2.7013-2.2773-4.5508-0.35921-1.8495 0.04486-3.4013 0.29883-3.7656 1.1201-1.6042 5.0738-6.7417 9.4102-11.232 2.1682-2.2454 4.4678-4.3571 6.4805-5.8457 2.0126-1.4885 3.8224-2.2011 4.1699-2.2422 12.477-1.4741 28.066-3.0386 41.094-3.707 4.8856-0.25066 9.4182-0.3729 13.242-0.32617zm-82.477 73.891c0.70347-0.03391 1.6373 0.05978 2.5996 0.33007 1.1358 0.31895 2.2036 0.88491 3.0078 1.3965l-8.4082 25.754c-0.40922-0.41275-0.63657-0.43068-1.0703-0.88671-1.4787-1.555-3.243-3.2502-5.3086-4.7715l5.3848-15.135 0.61133-1.5938a4.9922 5.0088 0 0 0 0.083984-0.23047c0.013047-0.04363-0.020858-0.06901-0.007812-0.11133l1.3926-3.9199c0.30006-0.4481 0.47357-0.62312 1.0957-0.75782 0.17564-0.03796 0.38465-0.06291 0.61914-0.07421zm-26.252 0.98632c-0.026093 0.00873-1.6902 1.0287-2.5312 1.8477-0.03479 0.05018-0.050508-0.02602 0.36523-0.49414 0.46867-0.52594 2.1939-1.3615 2.166-1.3535zm44.322 0.90625c0.77482-0.04033 1.8145 0.0525 2.791 0.34571 1.302 0.39137 2.4571 1.1232 2.9473 1.6445 0.43627 0.46398 0.35185 0.40935 0.31446 0.52929l-9.291 26.885-0.05078 0.12891-0.05078 0.16211a4.9922 5.0088 0 0 0-0.21289 0.87695c-1.355 0.07156-3.1978-0.25841-4.3066-0.14453-1.5864 0.16274-2.7232-0.16795-3.9746-0.21289l10.635-30.006c-0.03044 0.0349-0.1882 0.02706 0.52539-0.12696 0.18724-0.04079 0.41556-0.06858 0.67383-0.08203zm-36.148 0.75c0.012658 0.00505 0.006978 0.03498-0.003906 0.07227 0.03113 0.00391 0.058754 0.00923 0.13672-0.00781 0.42314-0.09207 1.5647-0.06261 2.7168 0.28906 0.74773 0.22819 1.2366 0.57065 1.793 0.89453l-5.0117 12.971c-2.118-1.5289-3.1582-3.3314-2.9902-5.6406 0.37138-1.3402 0.64388-2.3091 0.75781-2.668 0.32094-0.44002 0.6213-0.86546 0.80664-1.2441 0.48093-0.98267 1.0022-2.3333 1.791-4.5762 0.004798-0.01151-0.002642-0.00853 0-0.01758-0.095585-0.012-0.031692-0.08646 0.003906-0.07227zm52.449 7.8613c0.3272 0.01086 0.68627 0.05587 1.041 0.16211 0.8113 0.24303 1.4358 0.67372 1.7656 1.0996 0.3005 0.38789 0.47671 0.92429 0.42578 2.0117-1.3418 4.0497-2.0849 6.7979-2.5566 8.6582-0.52515 2.0709-0.94626 3.6547-2.5742 7.7617-0.98338 2.4809-1.6815 4.0215-2.1055 4.7734-0.14438-0.03054-0.08145 0.00244-1.1387-0.27344-0.99521-0.25961-2.8808-0.784-4.5273-1.2441l8.8164-22.906c0.23057-0.03054 0.52632-0.05382 0.85351-0.04297zm11.158 11.318 10.717 3.6133c-0.14612 1.6512-0.09872 3.267-0.66211 4.7031-0.83191 2.1209-1.844 2.9243-3.3809 3.375-1.3925-0.41319-3.2723-0.98357-5.7422-1.7988-1.42-0.46871-2.2156-0.72734-3.4609-1.1426 0.85509-2.4112 1.3248-4.1046 1.7207-5.666 0.2462-0.97092 0.49464-1.9496 0.8086-3.084z" style="color-rendering:auto;color:#000000;dominant-baseline:auto;fill-rule:evenodd;fill:#f5f5f5;font-feature-settings:normal;font-variant-alternates:normal;font-variant-caps:normal;font-variant-ligatures:normal;font-variant-numeric:normal;font-variant-position:normal;image-rendering:auto;isolation:auto;mix-blend-mode:normal;shape-padding:0;shape-rendering:auto;solid-color:#000000;text-decoration-color:#000000;text-decoration-line:none;text-decoration-style:solid;text-indent:0;text-orientation:mixed;text-transform:none;white-space:normal"/>
   </g>
  </g>
 </g>
</svg>
