<svg width="64.73mm" height="64.73mm" version="1.1" viewBox="0 0 64.73 64.73" xmlns="http://www.w3.org/2000/svg">
 <g transform="translate(-53.814 43.038)">
  <g transform="translate(-159.95 382.94)">
   <g transform="translate(214.69 -50.649)">
    <rect x="-.92396" y="-375.33" width="64.73" height="64.73" style="fill:none;paint-order:stroke fill markers"/>
    <path transform="matrix(.26458 0 0 .26458 -.92396 -375.33)" d="m210.13 49.494v0.001953a5.0005 5.0005 0 0 0-1.0176 0.08789l-19.82 3.75a5.0005 5.0005 0 0 0-4.0234 5.5957l1.0703 7.7949c-1.4045-0.17726-2.7385-0.3837-4.377-0.46484-4.9954-0.24756-11.121-0.1158-17.828 0.22852-13.415 0.68833-29.125 2.2669-41.744 3.7578-3.0768 0.36359-5.4409 1.9389-7.8184 3.6094l-18.957-7.9355a5.0005 5.0005 0 0 0-1.373-0.36133c-8.2637-0.92829-16.554-1.45-24.057-0.94531-4.061 0.27326-7.8537 0.92618-11.375 1.9785l1.1738-8.2227a5.0005 5.0005 0 0 0-4.1934-5.6484l-20.434-3.1289a5.0005 5.0005 0 0 0-5.7051 4.2363l-15.738 110.05a5.0005 5.0005 0 0 0 4.1914 5.6484l20.441 3.1367a5.0005 5.0005 0 0 0 5.707-4.2363l2.0137-14.123c0.11433 0.13342 0.14725 0.16378 0.25977 0.29493 1.5327 1.7901 2.217 2.5994 2.959 3.4707-0.70295 2.9773-1.495 5.9731-1.2617 9.0137 0.33124 4.3181 0.67727 8.5355 4.7988 11.773 7.0444 5.534 11.832 7.0685 15.98 8.9609 3.7448 1.7083 7.0767 0.123 9.4414-1.416 1.6629-1.0823 3.026-2.5718 4.4297-4.002 0.5463 0.52497 0.83839 0.51244 1.4395 1.1445 2.5501 2.6818 5.5222 6.2014 10.424 7.877 4.627 1.5816 8.7299 1.2264 11.906 0.90039 3.1764-0.32617 5.4906-0.59479 8.3867 0.14649 2.9409 0.75258 5.1255 1.4434 7.0938 1.957 1.9682 0.51367 3.8586 1.0491 6.3691 0.49414 2.5106-0.55499 4.5963-2.5842 5.7148-4.4356 0.13364-0.2211 0.22852-0.55692 0.35351-0.7832 2.9341 0.83354 6.2838 1.7909 8.3633 2.2969a5.0005 5.0005 0 1 0 2.3633-9.7148c-1.5449-0.37606-4.3057-1.1694-6.9395-1.9043 0.63339-1.8738 1.4638-4.1126 1.8008-5.4414 0.19816-0.7815 0.70386-2.289 0.93164-3.1445l9.8027 3.0644a5.0005 5.0005 0 0 0 6.4961-5.5371 5.0005 5.0005 0 0 0-3.5137-5.5879l-12.217-3.8086c-0.44418-1.4261-0.31706-3.1531-1.168-4.252-1.8508-2.39-4.3332-3.8146-6.7832-4.5488-1.6358-0.49028-3.2571-0.27594-4.8789-0.19921-0.55422-1.471-1.3479-2.8214-2.3184-3.8535-2.071-2.2026-4.6482-3.5567-7.3516-4.3691-2.7034-0.81241-5.5701-1.0952-8.4609-0.46484-1.1746 0.25625-2.3618 0.86732-3.498 1.5508l-0.0293-0.02344c-1.8399-1.297-4.0163-2.3432-6.4531-3.0273-2.4368-0.68418-5.1577-1.0266-8.0234-0.40626-2.518 0.54501-5.0167 2.2055-6.8359 4.5703-0.93118-0.45449-1.7114-1.1158-2.7461-1.4316-2.3429-0.71539-4.9409-1.1122-7.75-0.50196-2.8091 0.61021-5.9062 2.7494-7.2422 5.957a5.0005 5.0005 0 0 0-0.10352 0.27343c-0.81212 2.3245-1.2957 3.4516-1.418 3.7051-0.11494 0.11376-0.28212 0.15161-0.35352 0.25781-0.58772 0.87183-0.65562 1.2527-0.8125 1.707-0.31378 0.9086-0.63498 2.0787-1.2832 4.4648a5.0005 5.0005 0 0 0-0.16406 0.8789c-0.55532 6.4624 3.2292 13.125 10.246 16.676-0.39454 0.32579-0.91054 0.92722-1.2324 1.1367-0.3211 0.209-0.51379 0.29692-0.63867 0.34766 0.27916 0.12347 0.51712 0.22055 0.80859 0.35352-0.86169-0.393-1.1158-0.22869-0.80859-0.35352-4.3792-1.9368-7.421-2.8819-13.15-7.3828 0.85442 0.6712-0.78344-1.6901-1.0117-4.666-0.22828-2.9759 0.30186-6.4954 0.95312-7.9492a5.0005 5.0005 0 0 0-0.75391-5.2852s-2.0565-2.4101-4.2656-4.9902c-2.2091-2.5802-4.3033-5.051-5.3145-6.127a5.0005 5.0005 0 0 0-0.6875-0.62109l9.0273-63.152c2.7229-1.8003 7.5013-3.1845 13.701-3.6016 6.3601-0.4278 13.983 0.034484 21.695 0.87891l13.428 5.625c-0.07699 0.07937-0.16753 0.14133-0.24414 0.2207-4.834 5.006-8.7987 10.12-10.422 12.445-2.4875 3.5628-2.6432 7.6888-1.9199 11.414 0.72326 3.7252 2.385 7.2965 5.3145 10.002 2.0851 1.9256 4.6846 2.551 6.9023 2.6348 2.2177 0.08391 4.2538-0.3129 6.1426-0.86328 1.8888-0.55018 3.6159-1.2737 5.0996-2.0449 1.4837-0.77125 2.6107-1.3605 3.8984-2.7168 0.85032-0.89563 1.289-1.5236 2.3691-2.834 1.0802-1.3104 2.451-2.9558 3.8613-4.5703 1.4103-1.6145 2.8709-3.2085 4.0664-4.3613 0.79555-0.76711 1.457-1.1717 1.5137-1.2676 0.25268-0.009467 0.49961-0.019026 0.86328-0.025391 1.187-0.022677 2.7538-0.035283 4.3047-0.039062 3.1018-0.003591 6.127 0.023437 6.127 0.023437a5.0005 5.0005 0 0 0 0.16992-0.007812l33.771 11.346c1.3217 3.1012 1.7585 6.5371 0.90039 9.3613-0.88229 2.9037-2.8238 4.9643-6.0742 6.1856l-36.387-13.686a5.0005 5.0005 0 0 0-6.6133 3.4688l-0.20703 0.82032a5.0005 5.0005 0 0 0 3.1523 5.9121l48.41 17.518a5.0006 5.0006 0 1 0 3.4043-9.4043l-0.73829-0.26563c2.0886-2.2532 3.7662-4.8271 4.6211-7.6406 1.8683-6.1488 1.0137-12.949-2.2676-18.721a5.0005 5.0005 0 0 0-2.7539-2.2656l-37.166-12.49a5.0005 5.0005 0 0 0-2.8359-0.13281c-0.57853-0.003779-2.7109-0.027217-5.5215-0.023437-1.5838 0.001814-3.192 0.010652-4.4961 0.037109-0.65206 0.011339-1.2203 0.033649-1.7188 0.058594-0.24922 0.011338-0.47901 0.027411-0.73828 0.052734-0.25927 0.026457-0.31585-0.070877-1.3516 0.27344-2.7996 0.92958-3.756 2.2177-5.3066 3.7129s-3.1511 3.2481-4.666 4.9824c-1.515 1.7343-2.934 3.4449-4.0371 4.7832-1.1031 1.3383-2.2422 2.6583-1.9121 2.3106 0.3826-0.40297-0.34664 0.2658-1.2558 0.73828-0.90922 0.47263-2.1118 0.97494-3.2774 1.3145-1.1656 0.3394-2.303 0.49801-2.9746 0.47265-0.33467-0.01318-0.50475-0.05376-0.56836-0.07031 0.02448 0.02405 0.05002 0.05577 0.07422 0.07812-0.09361-0.08655-0.13732-0.09456-0.07422-0.07812-0.85165-0.83697-1.8572-2.6824-2.207-4.4844-0.35992-1.8538 0.03867-3.4123 0.29492-3.7793 1.1205-1.6048 5.0835-6.7378 9.4199-11.229 2.1682-2.2454 4.4605-4.3653 6.4726-5.8535s3.832-2.1884 4.1719-2.2285c12.477-1.4741 28.061-3.0444 41.088-3.7129 6.5136-0.33411 12.401-0.44119 16.814-0.22266 2.2066 0.10923 4.0451 0.3079 5.3086 0.54688 0.83342 0.15761 0.81127 0.1693 0.97461 0.2207l7.8242 57.025a5.0005 5.0005 0 1 0 9.9062-1.3652l-9.6543-70.4 10.068-1.9062 12.068 78.301a5.0009 5.0009 0 0 0 9.8848-1.5274l-12.859-83.408a5.0005 5.0005 0 0 0-4.8574-4.2383zm-171.3 10.75 10.549 1.6152-14.312 100.15-10.557-1.6172 14.32-100.15zm106.34 76.896a5.0005 5.0005 0 0 0-5.1367 4.998v1.0332a5.0005 5.0005 0 0 0 3.4394 4.7461l16.809 5.5137a5.0005 5.0005 0 0 0 6.6074-5.1738 5.0005 5.0005 0 0 0-3.4394-5.1523l-16.809-5.6992a5.0005 5.0005 0 0 0-1.4707-0.26563zm77.143 10.562-39.797 19.066 3.2305 6.7422-1.6328 4.6699-4.4961 2.166-7.0664-2.4824-14.609 41.508 9.4336 3.3223 12.605-35.82 16.51 34.211 9.0059-4.3477-16.49-34.162 35.941 12.555 3.2988-9.4414-35.906-12.543 34.291-16.424-4.3184-9.0195zm-126.89 2.3262c0.69902-0.03289 1.6275 0.06217 2.5879 0.33203 1.1379 0.31937 2.208 0.88187 3.0117 1.3945l-8.416 25.764c-0.4026-0.40607-0.62085-0.42307-1.0469-0.87109-1.4793-1.5557-3.2486-3.2531-5.3164-4.7754l5.3965-15.178 0.60547-1.5723a5.0005 5.0005 0 0 0 0.082031-0.22852c0.013984-0.04233-0.028853-0.069-0.015625-0.11133l1.4023-3.9355c0.29749-0.44187 0.47977-0.61126 1.0938-0.74414 0.17441-0.0378 0.38223-0.06326 0.61523-0.07422zm-26.26 1.0117c-0.023811 0.00755-1.6868 1.0143-2.5332 1.8301-0.030614 0.0412-0.0455-0.01533 0.36133-0.47265 0.46843-0.52566 2.1996-1.3653 2.1719-1.3574zm44.326 0.88476c0.77181-0.03958 1.8108 0.05484 2.7852 0.34766 1.2991 0.39042 2.4549 1.1171 2.9453 1.6387 0.43778 0.4656 0.35431 0.41848 0.31641 0.54687l-9.4043 27.172a5.0005 5.0005 0 0 0-0.20703 0.88672c-1.3509 0.07181-3.1898-0.26183-4.2949-0.14844-1.5861 0.1629-2.7234-0.16987-3.9727-0.21484l10.637-30.021c-0.02684 0.03024-0.18793 0.03072 0.52539-0.125 0.18603-0.04053 0.41265-0.06884 0.66992-0.08203zm-36.154 0.76758c0.013747 0.00315 0.017206 0.0251 0.011719 0.05664 0.031428 0.00191 0.060441 0.00451 0.13477-0.01172 0.41784-0.09071 1.5515-0.06401 2.7012 0.28711 0.75163 0.22942 1.246 0.57712 1.8027 0.90234l-5.0137 12.977c-2.1056-1.5262-3.1482-3.3338-2.9824-5.6406 0.37274-1.3456 0.64648-2.3008 0.76172-2.6641 0.32704-0.44583 0.62547-0.87176 0.8125-1.2539 0.48005-0.98086 0.98952-2.3462 1.7773-4.5859 4.31e-4 -0.00121 0.007056 0.00121 0.007812 0 0.001878-0.00653-0.002898-0.00434-0.001953-0.00977-0.094282-0.00574-0.047973-0.06495-0.011719-0.05664zm52.457 7.8438c0.32682 0.01247 0.68488 0.05981 1.0391 0.16601 0.80791 0.24227 1.4192 0.66663 1.75 1.0938 0.30334 0.39171 0.49096 0.92815 0.43554 2.0371-1.3407 4.0467-2.083 6.7826-2.5547 8.6426-0.5252 2.0712-0.95582 3.6658-2.584 7.7734-0.98204 2.4776-1.6708 4.0148-2.0957 4.7695-0.14529-0.03023-0.07168 0.00107-1.123-0.27344-0.9958-0.26003-2.8819-0.78721-4.5312-1.248l8.8125-22.92c0.22831-0.03061 0.52475-0.05348 0.85157-0.04101z" style="color-rendering:auto;color:#000000;dominant-baseline:auto;fill-rule:evenodd;fill:#f5f5f5;font-feature-settings:normal;font-variant-alternates:normal;font-variant-caps:normal;font-variant-ligatures:normal;font-variant-numeric:normal;font-variant-position:normal;image-rendering:auto;isolation:auto;mix-blend-mode:normal;shape-padding:0;shape-rendering:auto;solid-color:#000000;text-decoration-color:#000000;text-decoration-line:none;text-decoration-style:solid;text-indent:0;text-orientation:mixed;text-transform:none;white-space:normal"/>
   </g>
  </g>
 </g>
</svg>
