<?xml version="1.0" encoding="UTF-8"?>
<svg width="64.73mm" height="64.73mm" version="1.1" viewBox="0 0 64.73 64.73" xmlns="http://www.w3.org/2000/svg" xmlns:cc="http://creativecommons.org/ns#" xmlns:dc="http://purl.org/dc/elements/1.1/" xmlns:rdf="http://www.w3.org/1999/02/22-rdf-syntax-ns#">
 <metadata>
  <rdf:RDF>
   <cc:Work rdf:about="">
    <dc:format>image/svg+xml</dc:format>
    <dc:type rdf:resource="http://purl.org/dc/dcmitype/StillImage"/>
    <dc:title/>
   </cc:Work>
  </rdf:RDF>
 </metadata>
 <g transform="translate(-22.82 -19.04)">
  <g transform="translate(-1060.2 -101.16)">
   <g transform="translate(1083.9 495.53)">
    <rect x="-.92396" y="-375.33" width="64.73" height="64.73" style="fill:none;paint-order:stroke fill markers"/>
   </g>
   <path transform="matrix(.26458 0 0 .26458 1083 120.2)" d="m210 49.494c-0.29831 0.0034-0.59573 0.03345-0.88868 0.08984l-19.82 3.75c-2.6176 0.49562-4.3871 2.9565-4.0234 5.5957l1.0703 7.7949c-1.4045-0.17718-2.7385-0.3837-4.377-0.46484-4.9953-0.24741-11.121-0.11565-17.828 0.22852-13.415 0.68833-29.125 2.2669-41.744 3.7578-3.0768 0.36355-5.4409 1.9389-7.8184 3.6094l-18.957-7.9355c-0.43817-0.18514-0.90051-0.3068-1.373-0.36133-8.2637-0.92829-16.554-1.45-24.057-0.94531-4.061 0.27318-7.8537 0.92618-11.375 1.9785l1.1738-8.2227c0.38682-2.714-1.4836-5.2334-4.1934-5.6484l-20.434-3.1289c-2.7488-0.41972-5.312 1.4836-5.7051 4.2363l-15.738 110.05c-0.38689 2.7133 1.4824 5.2324 4.1914 5.6484l20.441 3.1367c2.7495 0.42092 5.314-1.4827 5.707-4.2363l2.0137-14.123c0.11433 0.13331 0.14723 0.16347 0.25977 0.29493 1.5327 1.7901 2.217 2.5994 2.959 3.4707-0.70295 2.9773-1.495 5.9731-1.2617 9.0137 0.33123 4.3181 0.67728 8.5355 4.7988 11.773 7.0444 5.534 11.832 7.0685 15.98 8.9609 3.7448 1.7083 7.0767 0.12308 9.4414-1.416 1.6629-1.0823 3.026-2.5718 4.4297-4.002 0.5463 0.52497 0.83839 0.51244 1.4395 1.1445 2.5501 2.6818 5.5222 6.2014 10.424 7.877 4.627 1.5816 8.7299 1.2264 11.906 0.90039 3.1764-0.3261 5.4906-0.59464 8.3867 0.14649 2.9409 0.75258 5.1255 1.4434 7.0938 1.957 1.9682 0.51367 3.8586 1.0491 6.3691 0.49414 2.5106-0.55499 4.5963-2.5842 5.7148-4.4356 0.13364-0.22121 0.22852-0.55692 0.35351-0.7832 2.9341 0.83354 6.2838 1.7909 8.3633 2.2969 2.6832 0.65195 5.3869-0.99458 6.0391-3.6777 0.65083-2.682-0.99438-5.384-3.6758-6.0371-1.5449-0.37591-4.3057-1.1694-6.9395-1.9043 0.63339-1.8738 1.4638-4.1126 1.8008-5.4414 0.19817-0.7815 0.70386-2.289 0.93164-3.1445l9.8027 3.0644c2.6364 0.82628 5.4432-0.6423 6.2676-3.2793 0.22593-0.73031 0.28139-1.5027 0.16211-2.2578 0.40613-2.4619-1.0649-4.8463-3.4473-5.5879l-12.217-3.8086c-0.44418-1.4261-0.31705-3.1531-1.168-4.252-1.8508-2.39-4.3332-3.8146-6.7832-4.5488-1.6358-0.49028-3.2571-0.2759-4.8789-0.19921-0.55422-1.471-1.3479-2.8214-2.3184-3.8535-2.071-2.2026-4.6482-3.5567-7.3516-4.3691-2.7034-0.81241-5.5701-1.0952-8.4609-0.46484-1.1746 0.25617-2.3618 0.86537-3.498 1.5488-0.01-7e-3 -0.0193-0.0144-0.0293-0.0215-1.8399-1.297-4.0163-2.3412-6.4531-3.0254-2.4368-0.68417-5.1577-1.0266-8.0234-0.40625-2.518 0.54501-5.0167 2.2035-6.8359 4.5684-0.93118-0.45449-1.7114-1.1158-2.7461-1.4316-2.3429-0.71539-4.9409-1.1122-7.75-0.50196-2.8091 0.61021-5.9062 2.7494-7.2422 5.957-0.03716 0.0901-0.07168 0.1813-0.10352 0.27343-0.5081 1.3406-1.1086 2.5656-1.7715 3.9629-0.4141 0.88761-0.65562 1.2527-0.8125 1.707-0.31377 0.9086-0.63498 2.0787-1.2832 4.4648-0.08082 0.28748-0.13573 0.58162-0.16406 0.8789-0.55532 6.4624 3.2292 13.125 10.246 16.676-0.39454 0.32568-0.91054 0.92722-1.2324 1.1367-0.3211 0.209-0.51379 0.29693-0.63867 0.34766 0.27916 0.12347 0.51712 0.22055 0.80859 0.35352-0.8617-0.39308-1.1158-0.22872-0.80859-0.35352-4.3792-1.9368-7.421-2.8819-13.15-7.3828 0.85441 0.6712-0.78344-1.6901-1.0117-4.666-0.22828-2.9759 0.30188-6.4954 0.95312-7.9492 0.78882-1.7597 0.49547-3.8162-0.75391-5.2852 0 0-2.0565-2.4101-4.2656-4.9902-2.2091-2.5802-4.3052-5.051-5.3164-6.127-0.20954-0.22234-0.43901-0.42502-0.68555-0.60547l9.0273-63.168c2.7229-1.8003 7.5013-3.1845 13.701-3.6016 6.3601-0.4278 13.983 0.03441 21.695 0.87891l13.428 5.625c-0.077 0.07922-0.16753 0.14137-0.24414 0.2207-4.834 5.006-8.7987 10.12-10.422 12.445-2.4875 3.5628-2.6432 7.6888-1.9199 11.414 0.72326 3.7252 2.385 7.2965 5.3145 10.002 2.0851 1.9256 4.6846 2.551 6.9023 2.6348 2.2177 0.0838 4.2538-0.31309 6.1426-0.86328 1.8888-0.55018 3.6159-1.2737 5.0996-2.0449 1.4837-0.77125 2.6107-1.3605 3.8984-2.7168 0.85032-0.89563 1.289-1.5236 2.3691-2.834 1.0802-1.3104 2.451-2.9558 3.8613-4.5703 1.4103-1.6145 2.8709-3.2085 4.0664-4.3613 0.79555-0.76711 1.457-1.1717 1.5137-1.2676 0.25267-0.0091 0.49961-0.0182 0.86328-0.02539 1.187-0.02351 2.7538-0.0353 4.3047-0.03711 3.1018-0.0036 6.127 0.02344 6.127 0.02344 0.0566 9.62e-4 0.11328 9.62e-4 0.16992 0l33.771 11.338c1.3217 3.1012 1.7585 6.5352 0.90039 9.3594-0.88229 2.9037-2.8238 4.9662-6.0742 6.1875l-36.387-13.688c-2.7988-1.0532-5.8901 0.56911-6.6133 3.4707l-0.20703 0.81836c-0.6211 2.488 0.74056 5.0426 3.1523 5.9141l48.41 17.516c2.5947 0.93833 5.459-0.4025 6.4004-2.9961 0.94347-2.597-0.39833-5.4669-2.9961-6.4082l-0.73829-0.26563c2.0886-2.2532 3.7662-4.8271 4.6211-7.6406 1.8683-6.1488 1.0137-12.947-2.2676-18.719-0.60797-1.0687-1.5884-1.876-2.7539-2.2676l-37.166-12.49c-0.86445-0.28757-1.791-0.3335-2.6797-0.13281-0.46919-4e-3 -2.7882-0.02485-5.6777-0.02148-1.5838 0.0018-3.192 0.01133-4.4961 0.03711-0.65206 0.01293-1.2203 0.03297-1.7188 0.05859-0.24923 0.01281-0.47901 0.02715-0.73828 0.05273-0.25927 0.02559-0.31585-0.07264-1.3516 0.27148-2.7996 0.92958-3.756 2.2196-5.3066 3.7148-1.5506 1.4952-3.1511 3.2481-4.666 4.9824-1.515 1.7343-2.934 3.4449-4.0371 4.7832-1.1031 1.3383-2.2422 2.6583-1.9121 2.3105 0.3826-0.40297-0.34664 0.26569-1.2558 0.73829-0.90922 0.47263-2.1118 0.97493-3.2774 1.3144-1.1656 0.33951-2.303 0.49606-2.9746 0.4707-0.33467-0.0127-0.50475-0.0536-0.56836-0.0703 0.0245 0.0241 0.05 0.0558 0.0742 0.0781-0.0936-0.0864-0.13732-0.0947-0.0742-0.0781-0.85165-0.83697-1.8572-2.6824-2.207-4.4844-0.35992-1.8538 0.0387-3.4123 0.29492-3.7793 1.1205-1.6048 5.0835-6.7358 9.4199-11.227 2.1682-2.2454 4.4605-4.3673 6.4726-5.8555s3.832-2.1884 4.1719-2.2285c12.477-1.4741 28.061-3.0444 41.088-3.7129 6.5136-0.33422 12.401-0.43927 16.814-0.2207 2.2066 0.1093 4.0451 0.30575 5.3086 0.54492 0.83342 0.15776 0.81127 0.17137 0.97461 0.22266l7.8242 57.025c0.37562 2.7354 2.8974 4.6486 5.6328 4.2734 2.7389-0.3755 4.6533-2.9023 4.2734-5.6406l-9.6543-70.4 10.068-1.9043 12.068 78.299c0.4217 2.73 2.9773 4.6007 5.707 4.1777 2.7291-0.42173 4.5995-2.976 4.1777-5.7051l-12.859-83.408c-0.36766-2.3844-2.3853-4.1663-4.7969-4.2363-0.0631-0.0018-0.12629-0.0025-0.18945-2e-3zm-171.17 10.75 10.549 1.6152-14.312 100.15-10.557-1.6172zm106.14 76.893c-0.0462 6.6e-4 -0.0925 2e-3 -0.13868 4e-3 -2.684 0.10518-4.8054 2.312-4.8047 4.998v1.0332c2e-3 2.1586 1.3888 4.0722 3.4394 4.7461l16.809 5.5137c2.6234 0.86318 5.4497-0.56399 6.3125-3.1875 0.20913-0.63997 0.28686-1.3156 0.22852-1.9863 0.19217-2.2882-1.199-4.4132-3.373-5.1523l-16.809-5.6992c-0.53544-0.18337-1.0981-0.2745-1.6641-0.26953zm45.791 6.2715c-4.875 0-9.1406 1-12.797 3-3.6562 2-6.4375 4.5312-8.3438 7.5938-1.9062 3.0313-2.8594 6.0313-2.8594 9 0 1.4375 0.59375 2.7813 1.7812 4.0312 1.2188 1.2188 2.7031 1.8281 4.4531 1.8281 2.9688 0 4.9844-1.7656 6.0469-5.2969 1.125-3.375 2.5-5.9219 4.125-7.6406 1.625-1.75 4.1562-2.625 7.5938-2.625 2.9375 0 5.3281 0.8594 7.1719 2.5781 1.875 1.7188 2.8125 3.8281 2.8125 6.3281 0 1.2813-0.3125 2.4688-0.9375 3.5625-0.59374 1.0937-1.3438 2.0937-2.25 3-0.87499 0.87498-2.3125 2.1875-4.3125 3.9375-2.2813 2-4.0938 3.7344-5.4375 5.2031-1.3438 1.4375-2.4219 3.125-3.2344 5.0625-0.8125 1.9062-1.2188 4.1719-1.2188 6.7969 0 2.0938 0.54688 3.6719 1.6406 4.7344 1.125 1.0625 2.5 1.5938 4.125 1.5938 3.125 0 4.9844-1.625 5.5781-4.875 0.34379-1.5312 0.59378-2.5937 0.75-3.1875 0.18749-0.625 0.43751-1.2344 0.75-1.8281 0.31252-0.62501 0.78127-1.2969 1.4062-2.0156 0.65625-0.75001 1.5156-1.6094 2.5781-2.5781 3.8438-3.4375 6.5-5.875 7.9688-7.3125 1.5-1.4688 2.7812-3.2031 3.8438-5.2031 1.0938-2 1.6406-4.3282 1.6406-6.9844 0-3.375-0.95311-6.5-2.8594-9.375-1.875-2.875-4.5469-5.1406-8.0156-6.7969-3.4688-1.6875-7.4688-2.5312-12-2.5312zm-95.348 6.6211c0.69902-0.0328 1.6275 0.0624 2.5879 0.33203 1.1379 0.31952 2.208 0.88187 3.0117 1.3945l-8.416 25.764c-0.4026-0.40607-0.62085-0.42307-1.0469-0.87109-1.4793-1.5557-3.2486-3.2531-5.3164-4.7754l5.3965-15.178 0.60547-1.5723c0.02919-0.0755 0.05654-0.15169 0.08203-0.22852 0.0141-0.0424-0.02867-0.0689-0.01563-0.11133l1.4023-3.9355c0.29749-0.44187 0.47977-0.61126 1.0938-0.74414 0.17441-0.0378 0.38223-0.0633 0.61523-0.0742zm18.066 1.8965c0.77181-0.0396 1.8108 0.0549 2.7852 0.34766 1.2991 0.39042 2.4549 1.1171 2.9453 1.6387 0.43778 0.4656 0.35428 0.41848 0.31641 0.54687l-9.4043 27.172c-0.0958 0.28866-0.16513 0.58547-0.20703 0.88672-1.3509 0.0719-3.1898-0.2619-4.2949-0.14844-1.5861 0.16278-2.7234-0.16983-3.9727-0.21484l10.637-30.021c-0.0269 0.031-0.18792 0.0306 0.52539-0.125 0.18603-0.0406 0.41265-0.0688 0.66992-0.082zm-36.154 0.76758c0.01375 3e-3 0.0172 0.0251 0.01172 0.0566 0.03143 2e-3 0.06044 4e-3 0.13477-0.0117 0.41784-0.0908 1.5515-0.0639 2.7012 0.28711 0.75163 0.22949 1.246 0.57712 1.8027 0.90234l-5.0137 12.977c-2.1056-1.5262-3.1482-3.3338-2.9824-5.6406 0.37272-1.3456 0.64648-2.3008 0.76172-2.6641 0.32702-0.44583 0.62547-0.87371 0.8125-1.2559 0.48005-0.98086 0.98952-2.3442 1.7773-4.584 4.31e-4 -1e-3 0.0074 1e-3 0.0078 0 0.0019-7e-3 -0.0029-4e-3 -2e-3 -0.01-0.09428-6e-3 -0.04798-0.0649-0.01172-0.0566zm52.457 7.8438c0.32681 0.0125 0.68487 0.0599 1.0391 0.16601 0.80791 0.24216 1.4192 0.66659 1.75 1.0938 0.30335 0.39171 0.49096 0.92815 0.43554 2.0371-1.3407 4.0467-2.083 6.7845-2.5547 8.6445-0.5252 2.0711-0.95582 3.6639-2.584 7.7715-0.98204 2.4776-1.6708 4.0148-2.0957 4.7695-0.1453-0.0294-0.0717 9.6e-4 -1.123-0.27344-0.9958-0.25988-2.8819-0.78721-4.5312-1.248l8.8125-22.92c0.22831-0.0307 0.52475-0.0535 0.85157-0.041zm59.854 39.824c-2 0-3.6875 0.67188-5.0625 2.0156-1.375 1.3438-2.0625 3-2.0625 4.9688 0 2.2187 0.70314 3.9531 2.1094 5.2031 1.4375 1.2187 3.1094 1.8281 5.0156 1.8281 1.8437 0 3.4687-0.62501 4.875-1.875 1.4062-1.25 2.1094-2.9688 2.1094-5.1562 0-1.9688-0.67188-3.625-2.0156-4.9688-1.3438-1.3437-3-2.0156-4.9688-2.0156z" style="color-rendering:auto;color:#000000;dominant-baseline:auto;fill-rule:evenodd;fill:#292b2c;font-feature-settings:normal;font-variant-alternates:normal;font-variant-caps:normal;font-variant-east-asian:normal;font-variant-ligatures:normal;font-variant-numeric:normal;font-variant-position:normal;font-variation-settings:normal;image-rendering:auto;inline-size:0;isolation:auto;mix-blend-mode:normal;shape-margin:0;shape-padding:0;shape-rendering:auto;solid-color:#000000;stop-color:#000000;text-decoration-color:#000000;text-decoration-line:none;text-decoration-style:solid;text-indent:0;text-orientation:mixed;text-transform:none;white-space:normal"/>
  </g>
 </g>
</svg>
