<?xml version="1.0" encoding="UTF-8"?>
<svg width="64.73mm" height="64.73mm" version="1.1" viewBox="0 0 64.73 64.73" xmlns="http://www.w3.org/2000/svg" xmlns:cc="http://creativecommons.org/ns#" xmlns:dc="http://purl.org/dc/elements/1.1/" xmlns:rdf="http://www.w3.org/1999/02/22-rdf-syntax-ns#">
 <metadata>
  <rdf:RDF>
   <cc:Work rdf:about="">
    <dc:format>image/svg+xml</dc:format>
    <dc:type rdf:resource="http://purl.org/dc/dcmitype/StillImage"/>
    <dc:title/>
   </cc:Work>
  </rdf:RDF>
 </metadata>
 <g transform="translate(-47.766 -42.474)">
  <g transform="translate(-958.14 -81.621)">
   <g transform="translate(1006.8 499.42)">
    <rect x="-.92396" y="-375.33" width="64.73" height="64.73" style="fill:none;paint-order:stroke fill markers"/>
   </g>
   <g transform="matrix(.30664 0 0 .22441 1105.8 96.275)" style="stroke-width:1.489">
    <path transform="matrix(.86284 0 0 1.179 -3469.5 -291.08)" d="m3853.8 401.52a5.0005 5.0005 0 0 0-1.0176 0.0899l-19.82 3.75a5.0005 5.0005 0 0 0-4.0234 5.5938l1.0703 7.7969c-1.4045-0.17718-2.7386-0.3837-4.377-0.46484-4.9953-0.24741-11.12-0.11565-17.828 0.22852-13.415 0.68832-29.125 2.2649-41.744 3.7558-3.0768 0.36356-5.441 1.9409-7.8184 3.6113l-18.957-7.9355a5.0005 5.0005 0 0 0-1.3731-0.36329c-8.2637-0.92828-16.554-1.448-24.057-0.94335-4.061 0.27319-7.8537 0.92617-11.375 1.9785l1.1738-8.2246a5.0005 5.0005 0 0 0-4.1933-5.6465l-20.434-3.1309a5.0005 5.0005 0 0 0-5.7051 4.2383l-15.738 110.05a5.0005 5.0005 0 0 0 4.1914 5.6465l20.441 3.1387a5.0005 5.0005 0 0 0 5.7051-4.2383l2.0156-14.121c0.1143 0.1333 0.1472 0.16347 0.2598 0.29492 1.5327 1.7901 2.217 2.5994 2.959 3.4707-0.703 2.9773-1.495 5.9712-1.2618 9.0117 0.3313 4.3181 0.6754 8.5375 4.7969 11.775 7.0444 5.534 11.834 7.0685 15.982 8.9609 3.7449 1.7083 7.0768 0.12113 9.4414-1.418 1.6629-1.0823 3.026-2.5699 4.4297-4 0.5463 0.52497 0.8384 0.51245 1.4395 1.1445 2.5501 2.6818 5.5221 6.1995 10.424 7.875 4.627 1.5816 8.7299 1.2284 11.906 0.90235 3.1764-0.3261 5.4906-0.59465 8.3867 0.14648 2.9409 0.75258 5.1255 1.4434 7.0937 1.957 1.9683 0.51368 3.8586 1.0491 6.3692 0.49414 2.5105-0.55499 4.5963-2.5861 5.7148-4.4375 0.1337-0.22121 0.2286-0.55497 0.3535-0.78125 2.9341 0.83353 6.2839 1.789 8.3633 2.2949a5.0005 5.0005 0 1 0 2.3633-9.7148c-1.5449-0.37591-4.3057-1.1694-6.9395-1.9043 0.6334-1.8738 1.4639-4.1107 1.8008-5.4394 0.1982-0.78149 0.7019-2.289 0.9297-3.1445l9.8047 3.0625a5.0005 5.0005 0 0 0 6.4961-5.5352 5.0005 5.0005 0 0 0-3.5137-5.5898l-12.217-3.8086c-0.4442-1.426-0.317-3.1531-1.1679-4.252-1.8508-2.39-4.3333-3.8126-6.7832-4.5469-1.6359-0.49028-3.2571-0.2759-4.879-0.19922-0.5542-1.471-1.3478-2.8214-2.3183-3.8535-2.071-2.2026-4.6482-3.5567-7.3516-4.3691-2.7034-0.8124-5.5701-1.0972-8.4609-0.46679-1.1746 0.25617-2.3618 0.86733-3.4981 1.5508-0.01-7e-3 -0.019-0.0145-0.029-0.0215-1.8398-1.2969-4.0163-2.3432-6.4531-3.0273s-5.1577-1.0266-8.0234-0.40625c-2.518 0.545-5.0167 2.2055-6.836 4.5703-0.9311-0.45449-1.7114-1.1157-2.7461-1.4316-2.3428-0.71539-4.9408-1.1122-7.75-0.50195-2.8091 0.6102-5.9062 2.7494-7.2421 5.957a5.0005 5.0005 0 0 0-0.1036 0.27344c-0.8121 2.3245-1.2957 3.4516-1.4179 3.7051-0.115 0.11395-0.2821 0.15191-0.3535 0.25781-0.5878 0.87182-0.6557 1.2508-0.8125 1.7051-0.3138 0.9086-0.637 2.0806-1.2852 4.4668a5.0005 5.0005 0 0 0-0.1621 0.87891c-0.5553 6.4624 3.2292 13.125 10.246 16.676-0.3945 0.32568-0.9106 0.92723-1.2324 1.1367-0.3189 0.20756-0.5133 0.29659-0.6387 0.34765 0.2791 0.12345 0.5172 0.22058 0.8086 0.35352-0.8641-0.39418-1.12-0.22666-0.8086-0.35352-4.3793-1.9368-7.421-2.8818-13.15-7.3828 0.8544 0.6712-0.7834-1.69-1.0117-4.666-0.2283-2.9759 0.3019-6.4973 0.9531-7.9512a5.0005 5.0005 0 0 0-0.7539-5.2852s-2.0565-2.4101-4.2656-4.9902c-2.2092-2.5802-4.3052-5.051-5.3164-6.127a5.0005 5.0005 0 0 0-0.6856-0.61914l9.0274-63.152c2.7229-1.8003 7.5013-3.1845 13.701-3.6016 6.3601-0.4278 13.983 0.0324 21.695 0.87696l13.428 5.625c-0.077 0.0792-0.1675 0.14333-0.2442 0.22265-4.8339 5.006-8.7986 10.12-10.422 12.445-2.4875 3.5628-2.6432 7.6869-1.9199 11.412 0.7232 3.7252 2.3849 7.2965 5.3144 10.002 2.0851 1.9256 4.6846 2.5529 6.9023 2.6367 2.2178 0.0838 4.2538-0.3131 6.1426-0.86328 1.8888-0.55019 3.6159-1.2737 5.0996-2.0449 1.4838-0.77125 2.6108-1.3605 3.8985-2.7168 0.8503-0.89563 1.289-1.5255 2.3691-2.8359 1.0802-1.3104 2.451-2.9539 3.8613-4.5684 1.4103-1.6145 2.8709-3.2105 4.0665-4.3633 0.7932-0.76486 1.4517-1.1682 1.5117-1.2656-0.047 2e-3 -0.1139 2e-3 -0.1602 4e-3 0.1328-0.0346 0.1791-0.0359 0.1602-4e-3 0.2531-9e-3 0.5007-0.0182 0.8652-0.0254 1.187-0.0235 2.7538-0.0353 4.3047-0.0371 3.1018-3e-3 6.1269 0.0215 6.1269 0.0215a5.0005 5.0005 0 0 0 0.17-8e-3l33.772 11.346c1.3217 3.1012 1.7585 6.5371 0.9003 9.3613-0.8823 2.9037-2.8237 4.9643-6.0742 6.1855l-36.387-13.686a5.0005 5.0005 0 0 0-6.6133 3.4688l-0.207 0.82031a5.0005 5.0005 0 0 0 3.1523 5.9121l48.41 17.518a5.0006 5.0006 0 1 0 3.4023-9.4043l-0.7382-0.26562c2.0886-2.2532 3.7662-4.8271 4.621-7.6406 1.8684-6.1488 1.0157-12.949-2.2656-18.721a5.0005 5.0005 0 0 0-2.7539-2.2656l-37.168-12.49a5.0005 5.0005 0 0 0-2.8339-0.13281c-0.5786-5e-3 -2.7109-0.0248-5.5215-0.0215-1.5838 2e-3 -3.192 0.0113-4.4961 0.0371-0.6521 0.0129-1.2203 0.033-1.7188 0.0586-0.2492 0.0128-0.479 0.0252-0.7382 0.0508-0.2593 0.0256-0.3159-0.0707-1.3516 0.27343-2.7996 0.92958-3.756 2.2177-5.3067 3.7129-1.5506 1.4952-3.151 3.2482-4.666 4.9824-1.5149 1.7343-2.9339 3.4449-4.0371 4.7832-1.1031 1.3383-2.2422 2.6583-1.9121 2.3106 0.3826-0.40298-0.3466 0.26569-1.2558 0.73828-0.9093 0.47263-2.1118 0.97493-3.2774 1.3144-1.1655 0.33952-2.303 0.49802-2.9746 0.47266-0.3347-0.0126-0.5047-0.0536-0.5684-0.0703 0.024 0.0241 0.05 0.0558 0.074 0.0781-0.094-0.0866-0.1374-0.0947-0.074-0.0781-0.8516-0.83696-1.8571-2.6824-2.207-4.4844-0.3599-1.8538 0.039-3.4123 0.2949-3.7793 1.1205-1.6048 5.0835-6.7378 9.42-11.229 2.1682-2.2454 4.4605-4.3653 6.4726-5.8535 2.0121-1.4882 3.832-2.1884 4.1719-2.2285 12.477-1.4741 28.061-3.0444 41.088-3.7129 6.5136-0.33423 12.401-0.44122 16.814-0.22265 2.2066 0.1093 4.0451 0.3077 5.3086 0.54687 0.8334 0.15776 0.8113 0.16942 0.9746 0.22071l7.8243 57.025a5.0005 5.0005 0 1 0 9.9062-1.3652l-9.6562-70.4 10.07-1.9043 12.068 78.299a5.0011 5.0011 0 1 0 9.8848-1.5273l-12.859-83.408a5.0005 5.0005 0 0 0-4.8574-4.2383zm-171.3 10.748 10.549 1.6172-14.312 100.15-10.557-1.6172zm106.34 76.898a5.0005 5.0005 0 0 0-5.1368 4.9961v1.0332a5.0005 5.0005 0 0 0 3.4395 4.748l16.809 5.5137a5.0005 5.0005 0 0 0 6.6074-5.1738 5.0005 5.0005 0 0 0-3.4414-5.1543l-16.809-5.6973a5.0005 5.0005 0 0 0-1.4687-0.26562zm24.602 5.7227v54.268l20.361 9.7949h3.7051l15.356-7.5801 23.373 10.344v-54.162l-23.615-10.451-17.012 8.1855zm-74.354 7.166c0.699-0.0328 1.6294 0.0624 2.5898 0.33203 1.138 0.31952 2.2081 0.88188 3.0118 1.3945l-8.4161 25.764c-0.4026-0.40608-0.6208-0.42307-1.0468-0.8711-1.4794-1.5557-3.2486-3.2551-5.3164-4.7773l5.3965-15.176 0.6054-1.5742a5.0005 5.0005 0 0 0 0.082-0.22852c0.014-0.0424-0.029-0.067-0.016-0.10937l1.4024-3.9356c0.2975-0.44187 0.4797-0.6132 1.0937-0.74609 0.1744-0.0378 0.3803-0.0613 0.6133-0.0723zm-26.258 1.0098c-0.024 7e-3 -1.6868 1.0162-2.5332 1.832-0.031 0.041-0.046-0.0162 0.3613-0.47266 0.4684-0.52566 2.1996-1.3673 2.1719-1.3594zm44.326 0.88672c0.7718-0.0396 1.8088 0.0549 2.7832 0.34765 1.2991 0.39042 2.4568 1.1171 2.9472 1.6387 0.4378 0.46561 0.3543 0.41654 0.3164 0.54493l-9.4043 27.174a5.0005 5.0005 0 0 0-0.207 0.88477c-1.3509 0.0719-3.1917-0.25995-4.2969-0.14649-1.586 0.16278-2.7214-0.16982-3.9707-0.21484l10.637-30.021c-0.027 0.031-0.188 0.0305 0.5253-0.125 0.1861-0.0406 0.4127-0.0688 0.67-0.082zm-36.154 0.76757c0.013 3e-3 0.016 0.0254 0.012 0.0547 0.032 2e-3 0.061 6e-3 0.1347-0.01 0.4179-0.0908 1.5516-0.0639 2.7012 0.28711 0.7516 0.22949 1.246 0.57515 1.8028 0.90039l-5.0137 12.979c-2.1056-1.5262-3.1482-3.3338-2.9824-5.6406 0.3727-1.3456 0.6464-2.3008 0.7617-2.6641 0.327-0.44583 0.6235-0.8737 0.8105-1.2559 0.4801-0.98086 0.9915-2.3442 1.7793-4.584 5e-4 -8.5e-4 0.01 8.5e-4 0.01 0v-0.0117c-0.096-5e-3 -0.048-0.063-0.012-0.0547zm136.4 2.4941 9.4844 4.1992v38.164l-9.4844-4.1953zm-34.607 0.19141 8.1719 3.834v38.158l-8.1719-3.9316zm25.258 0.0859v38l-7.7324 3.8184v-38.098zm-74.592 5.0723c0.3268 0.0125 0.6849 0.0599 1.0391 0.16602 0.8079 0.24215 1.4172 0.66467 1.748 1.0918 0.3034 0.39171 0.491 0.92816 0.4356 2.0371-1.3407 4.0467-2.0811 6.7845-2.5528 8.6445-0.5252 2.0711-0.9558 3.6658-2.584 7.7734-0.982 2.4776-1.6707 4.0148-2.0957 4.7695-0.1453-0.0294-0.072 5.5e-4 -1.123-0.27344-0.9958-0.25988-2.8839-0.78721-4.5332-1.248l8.8144-22.92c0.2283-0.0307 0.5248-0.0535 0.8516-0.041z"/>
   </g>
  </g>
 </g>
</svg>
