<svg width="64.73mm" height="64.73mm" version="1.1" viewBox="0 0 64.73 64.73" xmlns="http://www.w3.org/2000/svg">
 <g transform="translate(940.26 339.37)">
  <g transform="translate(-1490.9 81.316)">
   <g transform="translate(551.56 -45.357)">
    <rect x="-.92396" y="-375.33" width="64.73" height="64.73" style="fill:none;paint-order:stroke fill markers"/>
    <path transform="matrix(.26458 0 0 .26458 -.92 -375.33)" d="m210.12 49.506a5.0004 5.0004 0 0 0-1.0195 0.087891l-19.82 3.75a5.0004 5.0004 0 0 0-4.0234 5.5898l1.0703 7.8027c-1.4045-0.17726-2.7386-0.38565-4.377-0.4668-4.9953-0.24756-11.121-0.12166-17.828 0.22266-13.415 0.68833-29.125 2.2728-41.744 3.7637-3.0768 0.36359-5.4389 1.9409-7.8164 3.6113l-18.957-7.9434a5.0004 5.0004 0 0 0-1.373-0.35352c-8.2638-0.92833-16.556-1.45-24.059-0.94531-4.0575 0.27288-7.8483 0.92018-11.367 1.9707l1.1738-8.2168a5.0004 5.0004 0 0 0-4.1934-5.6465l-20.439-3.1309a5.0004 5.0004 0 0 0-5.707 4.2305l-15.73 110.06a5.0004 5.0004 0 0 0 4.1934 5.6465l20.432 3.1309a5.0004 5.0004 0 0 0 5.707-4.2305l2.0215-14.129c0.11596 0.13531 0.14562 0.16932 0.25976 0.30274 1.5303 1.7873 2.21 2.5904 2.9531 3.4629-0.70447 2.9794-1.4971 5.9766-1.2637 9.0195 0.3312 4.3181 0.68511 8.5297 4.8066 11.768 7.0442 5.5339 11.832 7.0764 15.98 8.9687 3.7447 1.7081 7.0708 0.12106 9.4355-1.418 1.6633-1.0826 3.0315-2.5693 4.4355-4 0.54382 0.52293 0.83362 0.5078 1.4316 1.1367 2.5501 2.6817 5.5221 6.2093 10.424 7.8848 4.627 1.5816 8.7299 1.2265 11.906 0.90039 3.1764-0.32617 5.4906-0.59476 8.3867 0.14649 2.9409 0.75254 5.1333 1.4434 7.1016 1.957 1.9682 0.51367 3.8527 1.0491 6.3633 0.49414 2.5105-0.55499 4.5944-2.5842 5.7129-4.4356 0.13365-0.2211 0.23048-0.55688 0.35547-0.7832 2.9349 0.83384 6.2826 1.7886 8.3633 2.2949a5.0004 5.0004 0 1 0 2.3691-9.7129c-1.5454-0.37606-4.3108-1.1712-6.9453-1.9062 0.63334-1.8738 1.4638-4.1107 1.8008-5.4394 0.19801-0.78085 0.70215-2.2898 0.92969-3.1445l9.8106 3.0625a5.0004 5.0004 0 0 0 6.4883-5.5215 5.0004 5.0004 0 0 0-3.5137-5.6035l-12.217-3.8086c-0.44418-1.4261-0.31512-3.1531-1.166-4.252-1.8508-2.39-4.3352-3.8126-6.7852-4.5469-1.6334-0.48948-3.2517-0.27518-4.8711-0.19922-0.55418-1.475-1.3535-2.8269-2.3262-3.8613-2.071-2.2026-4.6482-3.5567-7.3516-4.3692-2.7034-0.8124-5.5682-1.0894-8.459-0.45898-1.1746 0.25625-2.3637 0.86733-3.5 1.5508l-0.02929-0.02148c-1.8399-1.297-4.0144-2.3432-6.4512-3.0274-2.4368-0.68417-5.1597-1.0265-8.0254-0.40625-2.518 0.54505-5.0147 2.2055-6.834 4.5703-0.93081-0.45427-1.7119-1.1178-2.7461-1.4336-2.3429-0.71535-4.9429-1.1122-7.752-0.50195-2.8091 0.6102-5.9062 2.7435-7.2422 5.9512a5.0004 5.0004 0 0 0-0.10352 0.27344c-0.81213 2.3245-1.2938 3.4595-1.416 3.7129-0.11478 0.11376-0.28415 0.15199-0.35547 0.25781-0.58772 0.87183-0.6478 1.2508-0.80469 1.7051-0.30966 0.89669-0.6458 2.0845-1.2773 4.4082-0.008315 0.03024-0.005357 0.02609-0.013672 0.0586a5.0004 5.0004 0 0 0-0.16211 0.87695c-0.55528 6.4629 3.2281 13.125 10.246 16.676-0.39411 0.32542-0.91085 0.92741-1.2324 1.1367-0.3211 0.20899-0.51577 0.29887-0.64062 0.34961-4.3786-1.9365-7.4219-2.8825-13.15-7.3828 0.8544 0.67124-0.77563-1.6901-1.0039-4.666-0.22828-2.976 0.2941-6.4973 0.94531-7.9512a5.0004 5.0004 0 0 0-0.75195-5.2852s-2.0506-2.4101-4.2598-4.9902c-2.2091-2.5801-4.3118-5.0516-5.3223-6.127a5.0004 5.0004 0 0 0-0.67969-0.61914l9.0293-63.16c2.7244-1.7983 7.5041-3.179 13.699-3.5957 6.36-0.42784 13.977 0.034484 21.689 0.87891l13.428 5.625c-0.07586 0.077858-0.16867 0.13698-0.24414 0.21484-4.834 5.006-8.8007 10.128-10.424 12.453-2.4874 3.5628-2.6432 7.6869-1.9199 11.412s2.3868 7.2889 5.3164 9.9941c2.0851 1.9256 4.6846 2.5607 6.9023 2.6445 2.2177 0.08391 4.2518-0.3149 6.1406-0.86523 1.8888-0.55019 3.6178-1.2737 5.1016-2.0449s2.6087-1.3661 3.8965-2.7227c0.85029-0.8956 1.291-1.5255 2.3711-2.8359s2.4432-2.9461 3.8535-4.5605c1.4103-1.6145 2.8787-3.2105 4.0742-4.3633 0.79746-0.76895 1.4591-1.1786 1.5117-1.2754 0.25093-0.009396 0.49439-0.01907 0.85742-0.025391 1.187-0.022677 2.7596-0.025517 4.3105-0.029296 3.1018-0.003591 6.127 0.023437 6.127 0.023437a5.0004 5.0004 0 0 0 0.16992-0.007812l33.773 11.346c1.3217 3.1012 1.7585 6.5351 0.90039 9.3594-0.88368 2.9083-2.8236 4.9655-6.084 6.1856l-36.377-13.693a5.0004 5.0004 0 0 0-6.6152 3.4707l-0.20508 0.82617a5.0004 5.0004 0 0 0 3.1504 5.9141l48.412 17.516a5.0006 5.0006 0 0 0 3.4023-9.4043l-0.73828-0.26562c2.0886-2.2533 3.7662-4.8271 4.6211-7.6406 1.8683-6.1488 1.0155-12.947-2.2656-18.719a5.0004 5.0004 0 0 0-2.7539-2.2754l-37.168-12.482a5.0004 5.0004 0 0 0-2.834-0.13281c-0.57854-0.00378-2.7128-0.025264-5.5234-0.021485-1.5838 0.001852-3.19 0.010653-4.4941 0.03711-0.65206 0.011338-1.23 0.025458-1.7285 0.050781-0.24923 0.011339-0.47121 0.027412-0.73047 0.052735-0.25928 0.026456-0.3217-0.070878-1.3574 0.27344-2.7935 0.92935-3.7516 2.2269-5.3008 3.7207-1.5506 1.4952-3.1511 3.2482-4.666 4.9824-1.5149 1.7343-2.934 3.4449-4.0371 4.7832-1.1031 1.3383-2.2422 2.6582-1.9121 2.3106 0.38274-0.4032-0.34473 0.2578-1.2539 0.73047-0.90917 0.47259-2.1137 0.98279-3.2793 1.3223-1.1656 0.33941-2.303 0.49025-2.9746 0.46485-0.33581-0.01323-0.50722-0.05583-0.57032-0.07227-0.85113-0.83728-1.8555-2.6739-2.2051-4.4746-0.35993-1.8538 0.03859-3.42 0.29492-3.7871 1.1204-1.6048 5.0835-6.7378 9.4199-11.229 2.1682-2.2454 4.4624-4.3576 6.4746-5.8457 2.0122-1.4882 3.83-2.1962 4.1699-2.2363 12.477-1.4741 28.061-3.0386 41.088-3.707 6.5136-0.33411 12.403-0.43927 16.816-0.2207 2.2066 0.10923 4.0432 0.30752 5.3066 0.54688 0.8334 0.15761 0.81127 0.1693 0.97461 0.2207l7.8242 57.018a5.0004 5.0004 0 1 0 9.9082-1.3574l-9.6562-70.402 10.068-1.9043 12.07 78.293a5.0004 5.0004 0 1 0 9.8848-1.5215l-12.859-83.408a5.0004 5.0004 0 0 0-4.8574-4.2363zm-171.3 10.74 10.555 1.6172-14.32 100.16-10.549-1.6172 14.314-100.16zm106.34 76.906a5.0004 5.0004 0 0 0-5.1309 4.9961v1.0332a5.0004 5.0004 0 0 0 3.4395 4.748l16.809 5.5137a5.0004 5.0004 0 0 0 6.5996-5.1738 5.0004 5.0004 0 0 0-3.4394-5.1543l-16.809-5.6973a5.0004 5.0004 0 0 0-1.4688-0.26563zm29.629 8.4375-7.0723 7.0723 24.545 24.545-24.545 24.545 7.0723 7.0703 24.545-24.543 24.545 24.543 7.0723-7.0703-24.545-24.545 24.545-24.545-7.0723-7.0723-24.545 24.545-24.545-24.545zm-79.381 4.4512c0.69902-0.03283 1.6275 0.06217 2.5879 0.33203 1.1359 0.31899 2.2082 0.8827 3.0117 1.3945l-8.4141 25.764c-0.4026-0.40607-0.6228-0.42307-1.0488-0.87109-1.4793-1.5557-3.2466-3.2609-5.3145-4.7832l5.3809-15.148 0.62109-1.5938a5.0004 5.0004 0 0 0 0.080078-0.23047c0.013984-0.04233-0.0269-0.06705-0.013672-0.10938l1.4023-3.9355c0.29745-0.44183 0.47782-0.61126 1.0918-0.74415v-0.00195c0.17441-0.0377 0.38223-0.06132 0.61523-0.07226zm-26.26 1.0039c-0.023811 0.00756-1.6851 1.022-2.5312 1.8379-0.030614 0.0412-0.0455-0.01533 0.36133-0.47265 0.46842-0.52562 2.1976-1.3732 2.1699-1.3652zm44.328 0.88477c0.7718-0.03746 1.8089 0.06265 2.7832 0.35547 1.2991 0.39042 2.4548 1.1171 2.9453 1.6387 0.43783 0.46564 0.35428 0.41649 0.31641 0.54492l-9.3008 26.893-0.04297 0.11914-0.05273 0.16211a5.0004 5.0004 0 0 0-0.21289 0.88476c-1.3509 0.07181-3.1918-0.25987-4.2969-0.14648-1.586 0.1629-2.7234-0.16987-3.9727-0.21484l10.639-30.021c-0.02684 0.03024-0.18996 0.02291 0.52343-0.13281 0.18603-0.04054 0.41461-0.06955 0.67188-0.08203zm-35.57 0.77734c0.55127-0.01405 1.4093 0.06674 2.2715 0.33008 0.75076 0.22942 1.2364 0.57543 1.793 0.90039l-5.0117 12.971c-2.1041-1.5261-3.1482-3.3266-2.9824-5.6328 0.37368-1.349 0.64487-2.31 0.75977-2.6719 0.32508-0.44399 0.62604-0.87485 0.8125-1.2559 0.48028-0.98132 0.99667-2.3344 1.7852-4.5762 0.004285-0.01028-6.6e-4 -0.00727 0.001953-0.01562 0.030653 0.00407 0.057226 0.00873 0.13281-0.00781v0.00195c0.10445-0.02268 0.25374-0.03829 0.4375-0.04297zm51.877 7.8398c0.32519 0.01062 0.6804 0.05451 1.0332 0.16015 0.80793 0.24227 1.4193 0.66471 1.75 1.0918 0.30342 0.39182 0.49117 0.93529 0.43555 2.0449-1.3386 4.0414-2.0834 6.7858-2.5547 8.6445-0.52518 2.0711-0.9559 3.6658-2.584 7.7734-0.98384 2.482-1.679 4.0148-2.1035 4.7676-0.15031-0.03024-0.07037 0.00136-1.1152-0.27149-0.99582-0.26003-2.8818-0.78721-4.5312-1.248l8.8203-22.92c0.22884-0.03023 0.52442-0.05359 0.84961-0.04296zm69.551 9.9277 6.7324 6.7324-6.7324 6.7324-6.7324-6.7324 6.7324-6.7324z" style="color-rendering:auto;color:#000000;dominant-baseline:auto;fill:#f5f5f5;font-feature-settings:normal;font-variant-alternates:normal;font-variant-caps:normal;font-variant-ligatures:normal;font-variant-numeric:normal;font-variant-position:normal;image-rendering:auto;isolation:auto;mix-blend-mode:normal;shape-padding:0;shape-rendering:auto;solid-color:#000000;text-decoration-color:#000000;text-decoration-line:none;text-decoration-style:solid;text-indent:0;text-orientation:mixed;text-transform:none;white-space:normal"/>
   </g>
  </g>
 </g>
</svg>
