<svg width="64.73mm" height="64.73mm" version="1.1" viewBox="0 0 64.73 64.73" xmlns="http://www.w3.org/2000/svg">
 <g transform="translate(940.26 339.37)">
  <g transform="translate(-1490.9 81.316)">
   <g transform="translate(551.56 -45.357)">
    <rect x="-.92396" y="-375.33" width="64.73" height="64.73" style="fill:none;paint-order:stroke fill markers"/>
    <path d="m58.054-338.84-3.4032-22.068v0l-5.2441 0.99271 2.7268 19.873m-2.4591-15.937c-1.4973-1.114-11.421-0.2313-18.061 0.55318-2.0416 0.24122-5.5105 4.6261-6.2364 5.6658-0.72593 1.0398-0.29193 3.0084 0.71236 3.9358 1.0043 0.92747 3.4952-0.22561 3.9741-0.73009 0.27526-0.28993 2.798-3.5444 3.669-3.8336 0.19774-0.0657 3.4164-0.0367 3.4164-0.0367m-19.826 17.601c0.67811-2.4962 0.0978-0.0219 0.99605-2.5929 0.76001-1.8248 4.2222-0.22325 3.9302 0.65565l-2.0973 5.4241 0.11535 0.11568 2.4339-6.8511c1.1502-1.8981 4.425-0.28673 4.5936 0.59781l-2.7083 8.2948 2.9878-8.4327c0.77191-1.7263 4.804-0.58802 4.4399 1.4077l-2.5479 7.3679 2.5951-6.748c0.41003-1.0953 3.7694-0.80274 3.5365 1.7741-0.87568 2.5551-0.56402 2.4096-1.4572 4.6631-1.1184 2.8215-1.0545 2.2945-4.3012 1.4637-2.0317-0.51992-3.3601 0.40487-5.2687-0.24754-1.7302-0.59141-2.7248-2.9311-4.4586-3.3951-2.1226-0.5681-2.9167-2.0145-2.7893-3.4973zm-9.0915-28.074 5.4073 0.82855-4.1627 29.118-5.4073-0.82855zm5.0243 5.266c2.0824-1.5493 6.3254-1.5148 10.609-1.0336l5.2364 2.1926m8.2029 4.0148 9.833 3.3029c1.3826 2.432 0.68969 5.8062-2.3376 6.5997l-10.144-3.8168-0.05442 0.21817 12.808 4.635m-5.5109 3.3086-4.4471-1.508v0.2727l4.447 1.459m-2.5038 5.2442-3.6401-1.1343-0.10873 0.38179 3.7485 1.1706m-2.188 4.5114c-0.7114-0.17309-2.3423-0.62036-3.0147-0.82743m-13.684-1.7478c-0.89657 1.0167-1.9524 1.8583-2.6226 1.5526-1.1922-0.54388-2.2225-0.84394-3.9606-2.2094-0.86443-0.6791-1.0508-3.4793-0.40576-4.9193 0 0-2.1699-2.551-2.4922-2.894" style="fill:none;stroke-linecap:round;stroke-linejoin:round;stroke-width:2.6458;stroke:#f5f5f5"/>
   </g>
   <g transform="translate(133.63 -121.14)">
    <path d="m477.18-245.23-6.54-6.54" style="fill:none;stroke-width:2.6458;stroke:#f5f5f5"/>
    <path d="m468.86-253.55-6.54-6.54" style="fill:none;stroke-width:2.6458;stroke:#f5f5f5"/>
    <path d="m462.32-245.23 6.54-6.54" style="fill:none;stroke-width:2.6458;stroke:#f5f5f5"/>
    <path d="m470.64-253.55 6.54-6.54" style="fill:none;stroke-width:2.6458;stroke:#f5f5f5"/>
   </g>
  </g>
 </g>
</svg>
